# xmcd
#
# Track frame offsets: 
#        150
#        18075
#        43500
#        67875
#        85950
#        107325
#        132150
#        155550
#        167850
#        192150
#
# Disc length: 2785 seconds
#
# Revision: 8
# Processed by: cddbd v1.5.2PL0 Copyright (c) Steve Scherf et al.
# Submitted via: ExactAudioCopy v0.99pb5
#
DISCID=740adf0a
DTITLE=Manh Dinh - Truc Dao Manh Dinh 4
DYEAR=1995
DGENRE=Blues
TTITLE0=Truc Dao
TTITLE1=Tinh Xuan
TTITLE2=Sau Le Bong
TTITLE3=Ngay Em Di
TTITLE4=Sau Le Bong 3
TTITLE5=Pho Dem
TTITLE6=Cafe Dang
TTITLE7=Quen Ca Loi Ve
TTITLE8=Sau Le Bong 2
TTITLE9=Neu Toi Dua Em Ve
EXTD=YEAR: 1995 ID3G: 0
EXTT0=
EXTT1=
EXTT2=
EXTT3=
EXTT4=
EXTT5=
EXTT6=
EXTT7=
EXTT8=
EXTT9=
PLAYORDER=
